#define desk_width 10
#define desk_height 10
static unsigned char desk_bits[] = {
   0x00, 0x00, 0x10, 0x00, 0x18, 0x00, 0x3c, 0x00, 0xfe, 0x00, 0x78, 0x00,
   0x70, 0x00, 0x90, 0x00, 0x00, 0x01, 0x00, 0x00 };
